<svg width="387" height="207" viewBox="0 0 387 207" fill="none" xmlns="http://www.w3.org/2000/svg">
<path d="M40.0306 202.536C38.6435 203.363 36.341 204.327 33.123 205.429C29.9605 206.476 26.2432 207 21.9711 207C17.1441 207 13.0939 206.008 9.8204 204.024C6.60241 202.04 4.16119 199.312 2.49671 195.84C0.832237 192.368 0 188.4 0 183.936V172.115C0 167.54 0.832237 163.545 2.49671 160.128C4.16119 156.656 6.63016 153.956 9.90362 152.027C13.2326 150.098 17.3938 149.133 22.3872 149.133C24.8284 149.133 27.3529 149.409 29.9605 149.96C32.5682 150.456 35.4256 151.393 38.5326 152.771L35.4533 161.451C32.7347 160.404 30.3767 159.66 28.3793 159.219C26.4374 158.723 24.4955 158.475 22.5536 158.475C18.226 158.475 15.0912 159.715 13.1493 162.195C11.2075 164.62 10.2365 167.926 10.2365 172.115V183.936C10.2365 187.904 11.2075 191.156 13.1493 193.691C15.1467 196.226 18.2537 197.493 22.4704 197.493C23.7465 197.493 25.1336 197.383 26.6316 197.163C28.1296 196.942 29.5722 196.639 30.9592 196.253V183.936H21.8046V175.256H40.0306V202.536Z" fill="white"/>
<path d="M86.015 182.696V187.656C86.015 193.498 84.406 198.182 81.188 201.709C77.97 205.236 73.4204 207 67.5393 207C61.6581 207 57.1086 205.236 53.8906 201.709C50.6726 198.182 49.0636 193.498 49.0636 187.656V182.696C49.0636 176.854 50.6449 172.197 53.8074 168.725C57.0254 165.198 61.6027 163.435 67.5393 163.435C73.4759 163.435 78.0255 165.198 81.188 168.725C84.406 172.197 86.015 176.854 86.015 182.696ZM76.1946 182.696C76.1946 179.334 75.4455 176.716 73.9475 174.843C72.4495 172.914 70.3134 171.949 67.5393 171.949C64.7652 171.949 62.6291 172.914 61.1311 174.843C59.633 176.716 58.884 179.334 58.884 182.696V187.656C58.884 191.018 59.633 193.663 61.1311 195.592C62.6291 197.521 64.7652 198.485 67.5393 198.485C70.3134 198.485 72.4495 197.521 73.9475 195.592C75.4455 193.663 76.1946 191.018 76.1946 187.656V182.696Z" fill="white"/>
<path d="M131.284 182.696V187.656C131.284 193.498 129.675 198.182 126.457 201.709C123.239 205.236 118.69 207 112.808 207C106.927 207 102.378 205.236 99.1597 201.709C95.9418 198.182 94.3328 193.498 94.3328 187.656V182.696C94.3328 176.854 95.914 172.197 99.0765 168.725C102.295 165.198 106.872 163.435 112.808 163.435C118.745 163.435 123.295 165.198 126.457 168.725C129.675 172.197 131.284 176.854 131.284 182.696ZM121.464 182.696C121.464 179.334 120.715 176.716 119.217 174.843C117.719 172.914 115.583 171.949 112.808 171.949C110.034 171.949 107.898 172.914 106.4 174.843C104.902 176.716 104.153 179.334 104.153 182.696V187.656C104.153 191.018 104.902 193.663 106.4 195.592C107.898 197.521 110.034 198.485 112.808 198.485C115.583 198.485 117.719 197.521 119.217 195.592C120.715 193.663 121.464 191.018 121.464 187.656V182.696Z" fill="white"/>
<path d="M166.733 206.173V200.469C164.181 203.004 161.961 204.74 160.075 205.677C158.244 206.559 156.33 207 154.333 207C149.783 207 146.232 205.292 143.68 201.875C141.183 198.458 139.935 193.663 139.935 187.491V183.027C139.935 177.02 141.461 172.252 144.512 168.725C147.564 165.198 151.975 163.435 157.745 163.435C159.187 163.435 160.602 163.572 161.989 163.848C163.432 164.124 164.846 164.509 166.233 165.005V145H175.804V206.173H166.733ZM149.755 187.491C149.755 191.183 150.366 193.884 151.586 195.592C152.862 197.3 154.638 198.155 156.912 198.155C158.189 198.155 159.548 197.796 160.99 197.08C162.433 196.308 164.181 194.876 166.233 192.781V173.603C163.515 172.5 161.018 171.949 158.743 171.949C155.525 171.949 153.223 172.941 151.836 174.925C150.449 176.909 149.755 179.61 149.755 183.027V187.491Z" fill="white"/>
<path d="M227.69 202.536C226.303 203.363 224.001 204.327 220.783 205.429C217.62 206.476 213.903 207 209.631 207C204.804 207 200.754 206.008 197.48 204.024C194.262 202.04 191.821 199.312 190.156 195.84C188.492 192.368 187.66 188.4 187.66 183.936V172.115C187.66 167.54 188.492 163.545 190.156 160.128C191.821 156.656 194.29 153.956 197.563 152.027C200.892 150.098 205.053 149.133 210.047 149.133C212.488 149.133 215.013 149.409 217.62 149.96C220.228 150.456 223.085 151.393 226.192 152.771L223.113 161.451C220.394 160.404 218.036 159.66 216.039 159.219C214.097 158.723 212.155 158.475 210.213 158.475C205.886 158.475 202.751 159.715 200.809 162.195C198.867 164.62 197.896 167.926 197.896 172.115V183.936C197.896 187.904 198.867 191.156 200.809 193.691C202.806 196.226 205.913 197.493 210.13 197.493C211.406 197.493 212.793 197.383 214.291 197.163C215.789 196.942 217.232 196.639 218.619 196.253V183.936H209.464V175.256H227.69V202.536Z" fill="white"/>
<path d="M271.095 206.587C268.265 206.587 265.99 206.008 264.27 204.851C262.606 203.693 261.385 202.26 260.609 200.552C258.223 202.756 255.92 204.382 253.701 205.429C251.482 206.476 249.096 207 246.544 207C242.826 207 240.08 205.815 238.305 203.445C236.585 201.076 235.725 198.072 235.725 194.435C235.725 192.01 236.169 189.888 237.056 188.069C237.999 186.196 239.525 184.735 241.634 183.688C243.742 182.641 246.627 182.117 250.289 182.117C251.731 182.117 253.229 182.228 254.783 182.448C256.336 182.613 257.89 182.834 259.443 183.109V178.232C259.443 175.917 258.805 174.347 257.529 173.52C256.253 172.638 254.533 172.197 252.369 172.197C250.705 172.197 248.874 172.418 246.877 172.859C244.935 173.3 242.826 173.988 240.552 174.925L237.805 166.824C243.409 164.564 248.486 163.435 253.035 163.435C257.141 163.435 260.303 164.124 262.523 165.501C264.797 166.879 266.379 168.698 267.266 170.957C268.154 173.217 268.598 175.642 268.598 178.232V194.352C268.598 195.179 268.82 195.978 269.264 196.749C269.763 197.466 270.706 197.824 272.093 197.824H273.009V206.587H271.095ZM244.962 194.269C244.962 195.757 245.295 196.942 245.961 197.824C246.627 198.651 247.598 199.064 248.874 199.064C250.15 199.064 251.593 198.733 253.202 198.072C254.811 197.411 256.891 195.868 259.443 193.443V189.888C256.558 189.392 253.729 189.144 250.955 189.144C248.791 189.144 247.237 189.585 246.294 190.467C245.406 191.348 244.962 192.616 244.962 194.269Z" fill="white"/>
<path d="M290.888 177.157V206.173H281.318V164.261H290.389V169.8C292.997 167.54 295.41 165.915 297.629 164.923C299.849 163.931 302.124 163.435 304.454 163.435C309.614 163.435 313.137 165.694 315.023 170.213C317.797 167.788 320.377 166.052 322.763 165.005C325.149 163.958 327.562 163.435 330.003 163.435C333.887 163.435 336.856 164.73 338.908 167.32C340.961 169.855 341.988 173.437 341.988 178.067V206.173H332.417V179.224C332.417 174.595 330.642 172.28 327.091 172.28C325.704 172.28 324.178 172.611 322.513 173.272C320.849 173.933 318.824 175.228 316.438 177.157V206.173H306.867V179.224C306.867 174.595 305.092 172.28 301.541 172.28C300.154 172.28 298.628 172.611 296.964 173.272C295.299 173.933 293.274 175.228 290.888 177.157Z" fill="white"/>
<path d="M386.667 203.776C383.782 204.933 381.063 205.76 378.511 206.256C375.959 206.752 373.545 207 371.271 207C365.001 207 360.257 205.236 357.039 201.709C353.821 198.182 352.212 193.498 352.212 187.656V182.696C352.212 178.783 352.934 175.394 354.376 172.528C355.819 169.662 357.872 167.43 360.535 165.832C363.198 164.234 366.333 163.435 369.939 163.435C372.88 163.435 375.626 164.041 378.178 165.253C380.786 166.411 382.894 168.257 384.503 170.792C386.168 173.272 387 176.468 387 180.381C387 181.539 386.917 182.779 386.75 184.101C386.584 185.369 386.306 186.719 385.918 188.152H361.45C361.561 191.569 362.421 194.132 364.03 195.84C365.639 197.548 368.219 198.403 371.77 198.403C373.656 198.403 375.598 198.182 377.596 197.741C379.649 197.3 381.757 196.639 383.921 195.757L386.667 203.776ZM369.939 171.453C367.387 171.453 365.39 172.28 363.947 173.933C362.56 175.532 361.755 177.846 361.534 180.877H377.512C377.568 180.602 377.596 180.354 377.596 180.133C377.596 179.858 377.596 179.61 377.596 179.389C377.596 176.744 376.847 174.76 375.349 173.437C373.851 172.115 372.047 171.453 369.939 171.453Z" fill="white"/>
<circle cx="194" cy="62" r="56.5" stroke="#EDCE48" stroke-width="11"/>
<circle cx="194" cy="62" r="10" fill="#EDCE48"/>
<path d="M194 24L204.392 42H183.608L194 24Z" fill="#EDCE48"/>
<path d="M194 100L183.608 82L204.392 82L194 100Z" fill="#EDCE48"/>
<path d="M232 62L214 72.3923L214 51.6077L232 62Z" fill="#EDCE48"/>
<path d="M156 62L174 51.6077L174 72.3923L156 62Z" fill="#EDCE48"/>
</svg>
